<?xml version="1.0" encoding="utf-8"?>
<!-- Generator: Adobe Illustrator 15.1.0, SVG Export Plug-In . SVG Version: 6.00 Build 0)  -->
<!DOCTYPE svg PUBLIC "-//W3C//DTD SVG 1.1//EN" "http://www.w3.org/Graphics/SVG/1.1/DTD/svg11.dtd">
<svg version="1.1" xmlns="http://www.w3.org/2000/svg" xmlns:xlink="http://www.w3.org/1999/xlink" x="0px" y="0px"
	 width="414.541px" height="110.583px" viewBox="0 0 414.541 110.583" enable-background="new 0 0 414.541 110.583"
	 xml:space="preserve">
<g id="Layer_1">
	<g>
		<g>
			<g>
				<path fill="#333333" d="M0.698,1.429c2.95-0.277,5.982,0.183,8.854,1.092c2.881,0.906,5.6,2.272,8.188,3.809
					c5.146,3.15,9.745,7.051,14.038,11.178c8.604,8.268,16.124,17.417,23.686,26.395c7.552,8.983,15.024,17.979,23.39,25.993
					c4.211,3.958,8.643,7.697,13.575,10.668c4.895,3.007,10.371,5.167,16.27,5.723c-5.921,0.572-11.984-1.018-17.426-3.557
					c-5.455-2.596-10.427-6.077-15.011-9.918c-9.197-7.698-17.042-16.685-24.629-25.699C44.051,38.079,36.827,28.833,29,20.227
					c-3.95-4.255-8.03-8.401-12.629-11.875C11.818,4.873,6.619,2.006,0.698,1.429z"/>
			</g>
			<g>
				<path fill="#333333" d="M0.698,1.429c5.523-0.562,11.158,1.036,16.22,3.372c5.08,2.398,9.755,5.526,14.143,8.928
					c8.805,6.803,16.624,14.591,24.457,22.197c7.823,7.617,15.585,15.221,24.106,21.8c4.282,3.245,8.75,6.253,13.583,8.581
					c4.806,2.379,10.011,3.994,15.49,4.553c-5.495,0.562-11.149-0.442-16.433-2.286c-5.287-1.891-10.259-4.578-14.901-7.668
					c-9.321-6.179-17.473-13.756-25.337-21.402c-7.863-7.665-15.388-15.568-23.442-22.778c-4.056-3.56-8.233-6.984-12.816-9.77
					C11.218,4.141,6.19,1.989,0.698,1.429z"/>
			</g>
			<g>
				<path fill="#333333" d="M0.698,1.429C5.842,0.87,11.125,1.84,16.087,3.466c4.965,1.684,9.679,4.015,14.154,6.655
					c8.985,5.265,17.152,11.586,25.296,17.731c8.136,6.163,16.218,12.287,24.873,17.423c8.653,5.073,18.01,9.111,28.287,10.154
					c-5.131,0.562-10.396-0.008-15.478-1.22c-5.08-1.262-9.992-3.173-14.662-5.5c-9.378-4.628-17.859-10.686-26.041-16.874
					c-8.186-6.204-16.067-12.669-24.36-18.433c-4.168-2.84-8.431-5.534-12.978-7.669C10.656,3.558,5.822,1.983,0.698,1.429z"/>
			</g>
			<g>
				<path fill="#333333" d="M0.698,1.429c4.841-0.554,9.802-0.07,14.621,0.908c4.815,1.034,9.515,2.569,14.051,4.418
					c9.106,3.66,17.642,8.355,26.115,12.918c8.468,4.584,16.879,9.12,25.636,12.837c8.762,3.683,17.907,6.453,27.577,7.491
					c-9.699,1.062-19.666-0.719-28.948-3.839c-9.344-3.092-18.128-7.491-26.644-12.094c-8.522-4.614-16.799-9.498-25.325-13.767
					C19.243,6.104,10.379,2.489,0.698,1.429z"/>
			</g>
			<g>
				<path fill="#333333" d="M0.698,1.429C9.976,0.397,19.456,1.624,28.546,3.67c9.134,2.022,17.986,4.893,26.758,7.723
					c8.772,2.851,17.479,5.691,26.32,8.046c8.849,2.327,17.829,4.088,27.073,5.132c-9.259,1.043-18.716,0.339-27.913-1.322
					c-9.225-1.628-18.212-4.244-27.022-7.102c-8.816-2.866-17.475-5.982-26.214-8.722C18.797,4.723,9.943,2.478,0.698,1.429z"/>
			</g>
		</g>
		<g>
			<g>
				<path fill="#B72419" d="M0.698,109.429c5.921-0.577,11.121-3.444,15.673-6.923C20.97,99.032,25.05,94.886,29,90.631
					c7.827-8.606,15.051-17.852,22.631-26.886c7.587-9.014,15.432-18.001,24.629-25.698c4.584-3.842,9.557-7.323,15.011-9.918
					c5.442-2.539,11.504-4.129,17.426-3.557c-5.899,0.556-11.375,2.716-16.27,5.723c-4.932,2.97-9.363,6.71-13.575,10.668
					c-8.366,8.013-15.838,17.009-23.39,25.993c-7.562,8.978-15.082,18.127-23.686,26.395c-4.292,4.127-8.892,8.028-14.038,11.178
					c-2.589,1.537-5.307,2.903-8.188,3.809C6.68,109.246,3.647,109.706,0.698,109.429z"/>
			</g>
			<g>
				<path fill="#B72419" d="M0.698,109.429c5.492-0.56,10.52-2.712,15.07-5.526c4.583-2.785,8.76-6.209,12.816-9.769
					c8.054-7.21,15.579-15.113,23.442-22.778c7.864-7.646,16.016-15.223,25.337-21.401c4.642-3.091,9.615-5.777,14.902-7.668
					c5.284-1.843,10.938-2.848,16.433-2.286c-5.479,0.559-10.684,2.174-15.49,4.552c-4.833,2.328-9.301,5.336-13.583,8.581
					c-8.522,6.579-16.283,14.183-24.107,21.799c-7.834,7.605-15.652,15.393-24.457,22.196c-4.388,3.401-9.063,6.529-14.143,8.927
					C11.856,108.393,6.221,109.991,0.698,109.429z"/>
			</g>
			<g>
				<path fill="#B72419" d="M0.698,109.429c5.125-0.555,9.958-2.129,14.482-4.304c4.546-2.136,8.81-4.83,12.978-7.669
					c8.292-5.764,16.174-12.229,24.36-18.433c8.182-6.188,16.663-12.245,26.041-16.874c4.67-2.327,9.582-4.238,14.662-5.5
					c5.083-1.211,10.347-1.782,15.478-1.22c-10.277,1.043-19.634,5.081-28.287,10.154c-8.654,5.136-16.736,11.26-24.873,17.422
					c-8.145,6.146-16.312,12.467-25.296,17.731c-4.476,2.641-9.189,4.972-14.154,6.655C11.125,109.018,5.842,109.988,0.698,109.429z
					"/>
			</g>
			<g>
				<path fill="#B72419" d="M0.698,109.429c9.681-1.06,18.545-4.675,27.083-8.873c8.526-4.269,16.803-9.152,25.326-13.767
					c8.515-4.603,17.3-9.001,26.643-12.093c9.283-3.12,19.249-4.9,28.948-3.838c-9.669,1.039-18.815,3.808-27.577,7.491
					c-8.756,3.717-17.167,8.253-25.636,12.836c-8.473,4.563-17.009,9.258-26.116,12.918c-4.537,1.849-9.236,3.384-14.051,4.417
					C10.5,109.5,5.539,109.983,0.698,109.429z"/>
			</g>
			<g>
				<path fill="#B72419" d="M0.698,109.429c9.245-1.049,18.099-3.294,26.851-5.998c8.739-2.739,17.398-5.855,26.214-8.721
					c8.811-2.857,17.798-5.473,27.022-7.102c9.197-1.662,18.654-2.365,27.913-1.322c-9.244,1.044-18.224,2.805-27.073,5.132
					c-8.841,2.355-17.548,5.196-26.32,8.046c-8.772,2.83-17.624,5.701-26.758,7.723C19.456,109.234,9.976,110.46,0.698,109.429z"/>
			</g>
		</g>
	</g>
	<g>
		<path fill="#333333" d="M136.789,16.636c-3.555,0-6.35,1.26-8.385,3.778c-2.036,2.519-3.055,5.996-3.055,10.429
			c0,4.641,0.979,8.152,2.938,10.533s4.792,3.571,8.502,3.571c1.604,0,3.156-0.159,4.658-0.479c1.5-0.319,3.062-0.729,4.684-1.229
			v5.305c-2.968,1.122-6.332,1.682-10.093,1.682c-5.538,0-9.791-1.678-12.759-5.033c-2.967-3.355-4.451-8.156-4.451-14.402
			c0-3.934,0.721-7.375,2.161-10.326s3.523-5.21,6.25-6.78c2.726-1.57,5.927-2.355,9.601-2.355c3.865,0,7.437,0.811,10.715,2.433
			l-2.227,5.15c-1.276-0.604-2.626-1.134-4.05-1.592C139.855,16.865,138.358,16.636,136.789,16.636z"/>
		<path fill="#333333" d="M179.023,35.346c0,4.676-1.2,8.325-3.598,10.947c-2.398,2.623-5.736,3.934-10.016,3.934
			c-2.674,0-5.037-0.604-7.09-1.812c-2.054-1.208-3.633-2.941-4.736-5.202c-1.104-2.26-1.656-4.882-1.656-7.867
			c0-4.641,1.19-8.264,3.571-10.869c2.381-2.605,5.736-3.908,10.067-3.908c4.141,0,7.418,1.333,9.834,3.998
			C177.815,27.233,179.023,30.826,179.023,35.346z M158.19,35.346c0,6.608,2.441,9.912,7.323,9.912c4.831,0,7.246-3.304,7.246-9.912
			c0-6.539-2.432-9.808-7.297-9.808c-2.554,0-4.404,0.846-5.552,2.536C158.764,29.765,158.19,32.189,158.19,35.346z"/>
		<path fill="#333333" d="M210.129,49.709h-6.107V32.06c0-2.191-0.414-3.826-1.242-4.904c-0.828-1.078-2.122-1.617-3.882-1.617
			c-2.347,0-4.067,0.764-5.163,2.29c-1.096,1.527-1.643,4.068-1.643,7.622v14.259h-6.082V21.087h4.762l0.854,3.752h0.311
			c0.794-1.363,1.945-2.415,3.455-3.157c1.51-0.742,3.17-1.113,4.982-1.113c4.398,0,7.314,1.501,8.746,4.503h0.414
			c0.846-1.415,2.036-2.519,3.572-3.313c1.535-0.793,3.295-1.19,5.279-1.19c3.416,0,5.904,0.863,7.466,2.588
			c1.561,1.726,2.342,4.356,2.342,7.893v18.659h-6.081V32.06c0-2.191-0.419-3.826-1.256-4.904c-0.837-1.078-2.135-1.617-3.895-1.617
			c-2.364,0-4.094,0.737-5.188,2.213c-1.096,1.475-1.644,3.739-1.644,6.793V49.709z"/>
		<path fill="#333333" d="M251.199,50.227c-3.623,0-6.436-1.302-8.438-3.908H242.4c0.241,2.416,0.361,3.882,0.361,4.399v11.723
			h-6.081V21.087h4.917c0.138,0.535,0.423,1.812,0.854,3.83h0.311c1.898-2.898,4.745-4.348,8.541-4.348
			c3.57,0,6.353,1.294,8.346,3.882c1.992,2.588,2.988,6.22,2.988,10.895c0,4.676-1.014,8.325-3.04,10.947
			C257.569,48.916,254.77,50.227,251.199,50.227z M249.724,25.538c-2.416,0-4.18,0.708-5.292,2.122
			c-1.113,1.415-1.67,3.675-1.67,6.78v0.906c0,3.485,0.553,6.008,1.656,7.57c1.104,1.562,2.907,2.342,5.409,2.342
			c2.104,0,3.727-0.862,4.865-2.588c1.139-1.725,1.708-4.184,1.708-7.375c0-3.209-0.565-5.637-1.695-7.285
			S251.914,25.538,249.724,25.538z"/>
		<path fill="#333333" d="M295.09,35.346c0,4.676-1.2,8.325-3.598,10.947c-2.398,2.623-5.736,3.934-10.016,3.934
			c-2.674,0-5.037-0.604-7.09-1.812c-2.054-1.208-3.633-2.941-4.736-5.202c-1.104-2.26-1.656-4.882-1.656-7.867
			c0-4.641,1.19-8.264,3.571-10.869c2.381-2.605,5.736-3.908,10.067-3.908c4.141,0,7.418,1.333,9.834,3.998
			C293.882,27.233,295.09,30.826,295.09,35.346z M274.257,35.346c0,6.608,2.441,9.912,7.323,9.912c4.831,0,7.246-3.304,7.246-9.912
			c0-6.539-2.432-9.808-7.297-9.808c-2.554,0-4.404,0.846-5.552,2.536C274.83,29.765,274.257,32.189,274.257,35.346z"/>
		<path fill="#333333" d="M321.305,41.557c0,2.795-1.019,4.939-3.055,6.431c-2.035,1.492-4.951,2.238-8.746,2.238
			c-3.813,0-6.876-0.578-9.188-1.734v-5.253c3.364,1.553,6.496,2.329,9.395,2.329c3.743,0,5.615-1.13,5.615-3.39
			c0-0.725-0.207-1.328-0.621-1.812c-0.414-0.483-1.096-0.983-2.045-1.501c-0.948-0.518-2.269-1.104-3.959-1.76
			c-3.296-1.276-5.525-2.553-6.689-3.83c-1.165-1.276-1.747-2.933-1.747-4.969c0-2.45,0.987-4.352,2.963-5.707
			c1.976-1.354,4.662-2.031,8.062-2.031c3.364,0,6.547,0.682,9.549,2.044l-1.967,4.581c-3.088-1.276-5.685-1.915-7.789-1.915
			c-3.209,0-4.813,0.915-4.813,2.743c0,0.897,0.418,1.656,1.255,2.277s2.661,1.475,5.474,2.562c2.363,0.915,4.08,1.751,5.149,2.51
			c1.07,0.759,1.863,1.635,2.381,2.627S321.305,40.177,321.305,41.557z"/>
		<path fill="#333333" d="M327.515,13.504c0-1.087,0.298-1.923,0.893-2.51c0.596-0.586,1.445-0.88,2.55-0.88
			c1.069,0,1.901,0.293,2.497,0.88c0.595,0.587,0.893,1.423,0.893,2.51c0,1.035-0.298,1.85-0.893,2.446
			c-0.596,0.595-1.428,0.893-2.497,0.893c-1.104,0-1.954-0.298-2.55-0.893C327.813,15.354,327.515,14.54,327.515,13.504z
			 M333.959,49.709h-6.082V21.087h6.082V49.709z"/>
		<path fill="#333333" d="M353.316,45.31c1.483,0,2.967-0.233,4.451-0.699v4.581c-0.673,0.293-1.54,0.539-2.601,0.737
			c-1.062,0.198-2.161,0.298-3.3,0.298c-5.763,0-8.644-3.036-8.644-9.109V25.693h-3.907v-2.691l4.191-2.226l2.07-6.056h3.753v6.366
			h8.151v4.606h-8.151v15.32c0,1.467,0.366,2.549,1.1,3.248C351.164,44.96,352.126,45.31,353.316,45.31z"/>
		<path fill="#333333" d="M375.986,50.227c-4.451,0-7.933-1.298-10.442-3.895c-2.511-2.597-3.766-6.172-3.766-10.727
			c0-4.675,1.165-8.35,3.493-11.024c2.33-2.674,5.529-4.011,9.602-4.011c3.778,0,6.763,1.147,8.954,3.442
			c2.19,2.295,3.286,5.452,3.286,9.472v3.287h-19.072c0.086,2.778,0.837,4.913,2.252,6.405c1.414,1.492,3.406,2.238,5.978,2.238
			c1.69,0,3.265-0.159,4.723-0.479s3.023-0.85,4.697-1.592v4.943c-1.484,0.708-2.985,1.208-4.503,1.501
			C379.669,50.08,377.936,50.227,375.986,50.227z M374.873,25.176c-1.933,0-3.48,0.613-4.646,1.837
			c-1.164,1.225-1.859,3.011-2.083,5.357h12.991c-0.035-2.363-0.604-4.153-1.708-5.37C378.323,25.784,376.805,25.176,374.873,25.176
			z"/>
		<path fill="#333333" d="M413.252,41.557c0,2.795-1.019,4.939-3.055,6.431c-2.035,1.492-4.951,2.238-8.746,2.238
			c-3.813,0-6.876-0.578-9.188-1.734v-5.253c3.364,1.553,6.496,2.329,9.395,2.329c3.743,0,5.615-1.13,5.615-3.39
			c0-0.725-0.207-1.328-0.621-1.812c-0.414-0.483-1.096-0.983-2.045-1.501c-0.948-0.518-2.269-1.104-3.959-1.76
			c-3.296-1.276-5.525-2.553-6.689-3.83c-1.165-1.276-1.747-2.933-1.747-4.969c0-2.45,0.987-4.352,2.963-5.707
			c1.976-1.354,4.662-2.031,8.062-2.031c3.364,0,6.547,0.682,9.549,2.044l-1.967,4.581c-3.088-1.276-5.685-1.915-7.789-1.915
			c-3.209,0-4.813,0.915-4.813,2.743c0,0.897,0.418,1.656,1.255,2.277s2.661,1.475,5.474,2.562c2.363,0.915,4.08,1.751,5.149,2.51
			c1.07,0.759,1.863,1.635,2.381,2.627S413.252,40.177,413.252,41.557z"/>
		<path fill="#B72419" d="M142.094,99.309h-21.402V61.474h21.402v5.228h-15.217v10.3h14.26v5.176h-14.26v11.878h15.217V99.309z"/>
		<path fill="#B72419" d="M156.146,99.309l-10.869-28.622h6.418l5.822,16.64c1.001,2.795,1.605,5.055,1.813,6.78h0.207
			c0.154-1.242,0.759-3.502,1.811-6.78l5.823-16.64h6.47L162.72,99.309H156.146z"/>
		<path fill="#B72419" d="M203.375,84.946c0,4.676-1.199,8.325-3.597,10.947c-2.398,2.623-5.736,3.934-10.015,3.934
			c-2.675,0-5.038-0.604-7.092-1.812c-2.053-1.208-3.632-2.941-4.735-5.202c-1.104-2.26-1.656-4.882-1.656-7.867
			c0-4.641,1.19-8.264,3.571-10.869c2.381-2.605,5.736-3.908,10.066-3.908c4.141,0,7.419,1.333,9.834,3.999
			C202.168,76.833,203.375,80.426,203.375,84.946z M182.543,84.946c0,6.608,2.441,9.912,7.324,9.912c4.83,0,7.246-3.304,7.246-9.912
			c0-6.539-2.434-9.808-7.299-9.808c-2.553,0-4.403,0.846-5.551,2.536C183.116,79.365,182.543,81.789,182.543,84.946z"/>
		<path fill="#B72419" d="M216.445,99.309h-6.082V59.042h6.082V99.309z"/>
		<path fill="#B72419" d="M245.326,99.309l-0.854-3.752h-0.311c-0.846,1.329-2.05,2.373-3.61,3.131
			c-1.562,0.759-3.343,1.139-5.345,1.139c-3.467,0-6.055-0.862-7.764-2.588c-1.707-1.725-2.562-4.339-2.562-7.841v-18.71h6.134
			v17.649c0,2.191,0.448,3.834,1.346,4.93c0.896,1.096,2.303,1.643,4.218,1.643c2.553,0,4.43-0.763,5.629-2.291
			c1.198-1.526,1.798-4.084,1.798-7.673V70.687h6.107v28.622H245.326z"/>
		<path fill="#B72419" d="M269.445,94.91c1.483,0,2.967-0.233,4.451-0.699v4.581c-0.673,0.293-1.54,0.539-2.601,0.738
			c-1.062,0.198-2.161,0.297-3.3,0.297c-5.763,0-8.644-3.036-8.644-9.109V75.293h-3.907v-2.691l4.191-2.226l2.07-6.056h3.753v6.366
			h8.151v4.606h-8.151v15.32c0,1.467,0.366,2.549,1.1,3.248C267.293,94.561,268.255,94.91,269.445,94.91z"/>
		<path fill="#B72419" d="M279.253,63.104c0-1.087,0.298-1.923,0.893-2.51c0.596-0.586,1.445-0.88,2.55-0.88
			c1.069,0,1.901,0.293,2.497,0.88c0.595,0.587,0.893,1.423,0.893,2.51c0,1.035-0.298,1.851-0.893,2.445
			c-0.596,0.596-1.428,0.893-2.497,0.893c-1.104,0-1.954-0.297-2.55-0.893C279.551,64.955,279.253,64.14,279.253,63.104z
			 M285.697,99.309h-6.082V70.687h6.082V99.309z"/>
		<path fill="#B72419" d="M319.779,84.946c0,4.676-1.199,8.325-3.597,10.947c-2.398,2.623-5.736,3.934-10.015,3.934
			c-2.675,0-5.038-0.604-7.092-1.812c-2.053-1.208-3.632-2.941-4.735-5.202c-1.104-2.26-1.656-4.882-1.656-7.867
			c0-4.641,1.19-8.264,3.571-10.869c2.381-2.605,5.736-3.908,10.066-3.908c4.141,0,7.419,1.333,9.834,3.999
			C318.572,76.833,319.779,80.426,319.779,84.946z M298.947,84.946c0,6.608,2.441,9.912,7.324,9.912c4.83,0,7.246-3.304,7.246-9.912
			c0-6.539-2.434-9.808-7.299-9.808c-2.553,0-4.403,0.846-5.551,2.536C299.521,79.365,298.947,81.789,298.947,84.946z"/>
		<path fill="#B72419" d="M351.947,99.309h-6.107V81.711c0-2.208-0.444-3.856-1.332-4.943c-0.889-1.087-2.3-1.63-4.231-1.63
			c-2.571,0-4.451,0.759-5.642,2.277c-1.19,1.519-1.785,4.063-1.785,7.634v14.259h-6.082V70.687h4.762l0.854,3.752h0.311
			c0.863-1.363,2.088-2.415,3.676-3.157c1.587-0.742,3.347-1.113,5.279-1.113c6.866,0,10.299,3.494,10.299,10.481V99.309z"/>
	</g>
</g>
<g id="Layer_3" display="none">
	<rect x="157.5" y="298" display="inline" fill="#B82601" width="211.5" height="72"/>
	<rect x="-54" y="298" display="inline" fill="#333333" width="211.5" height="72"/>
	<rect x="636.5" y="298" display="inline" fill="#B82601" width="211.5" height="72"/>
	<rect x="425" y="298" display="inline" fill="#333333" width="211.5" height="72"/>
	<rect x="1115.5" y="298" display="inline" fill="#B82601" width="211.5" height="72"/>
	<rect x="904" y="298" display="inline" fill="#333333" width="211.5" height="72"/>
	<rect x="1593" y="297" display="inline" fill="#B82601" width="211.5" height="72"/>
	<rect x="1383" y="297" display="inline" fill="#333333" width="211.5" height="72"/>
</g>
<g id="Layer_2" display="none">
	<g display="inline">
		<rect x="1373.353" y="152.878" fill="none" width="53.295" height="44.878"/>
		<path fill="#FFFFFF" d="M1399.101,165.459h3.604c0.182,0,0.337-0.034,0.466-0.101s0.24-0.163,0.334-0.286s0.168-0.268,0.225-0.435
			c0.055-0.167,0.098-0.35,0.127-0.549l0.141-0.844h1.248l-0.132,3.313h-10.547V165.6h0.756c0.129,0,0.249-0.012,0.36-0.035
			s0.209-0.072,0.295-0.145c0.084-0.073,0.15-0.182,0.197-0.325s0.07-0.333,0.07-0.567v-8.701c0-0.258-0.023-0.463-0.07-0.615
			s-0.111-0.27-0.193-0.352s-0.179-0.136-0.29-0.163s-0.234-0.04-0.369-0.04h-0.756v-0.949h9.993l0.07,3.313h-1.257l-0.088-0.853
			c-0.047-0.439-0.158-0.776-0.334-1.011s-0.448-0.352-0.817-0.352h-3.032v4.5h4.271v1.081h-4.271V165.459z"/>
		<path fill="#FFFFFF" d="M1409.144,166.681c-0.565,0-1.037-0.053-1.415-0.16c-0.377-0.106-0.68-0.244-0.907-0.412
			c-0.228-0.168-0.39-0.357-0.486-0.566c-0.096-0.209-0.145-0.416-0.145-0.622c0-0.217,0.04-0.4,0.12-0.547s0.187-0.269,0.32-0.363
			c0.133-0.095,0.285-0.162,0.455-0.203s0.348-0.062,0.532-0.062c0,0.361,0.043,0.678,0.129,0.951
			c0.086,0.272,0.205,0.5,0.357,0.683c0.151,0.183,0.333,0.32,0.544,0.412s0.442,0.139,0.692,0.139c0.246,0,0.466-0.035,0.658-0.104
			s0.356-0.167,0.492-0.29s0.238-0.268,0.308-0.434s0.104-0.345,0.104-0.538c0-0.213-0.043-0.403-0.129-0.569
			s-0.217-0.32-0.391-0.461c-0.175-0.142-0.394-0.277-0.658-0.406c-0.265-0.129-0.573-0.268-0.927-0.416
			c-0.438-0.181-0.809-0.366-1.11-0.557c-0.301-0.191-0.544-0.397-0.729-0.619c-0.185-0.221-0.317-0.461-0.397-0.72
			c-0.079-0.258-0.119-0.542-0.119-0.849c0-0.385,0.077-0.734,0.233-1.046c0.156-0.312,0.371-0.578,0.646-0.8
			c0.275-0.221,0.602-0.392,0.979-0.51c0.378-0.119,0.788-0.179,1.23-0.179c0.464,0,0.863,0.038,1.2,0.114
			c0.336,0.076,0.614,0.18,0.833,0.311c0.22,0.131,0.383,0.286,0.489,0.464c0.106,0.178,0.16,0.37,0.16,0.575
			c0,0.147-0.032,0.285-0.096,0.412c-0.063,0.127-0.159,0.238-0.289,0.333c-0.129,0.094-0.291,0.168-0.485,0.221
			c-0.195,0.053-0.422,0.08-0.681,0.08c0-0.176-0.023-0.366-0.07-0.569c-0.047-0.203-0.124-0.392-0.23-0.566
			c-0.107-0.174-0.245-0.319-0.416-0.434c-0.17-0.115-0.376-0.172-0.618-0.172c-0.168,0-0.328,0.025-0.479,0.074
			c-0.152,0.049-0.284,0.123-0.396,0.222c-0.113,0.099-0.202,0.221-0.269,0.366c-0.065,0.146-0.098,0.313-0.098,0.501
			c0,0.176,0.028,0.342,0.086,0.498c0.058,0.156,0.163,0.309,0.316,0.458c0.154,0.15,0.365,0.299,0.634,0.449
			c0.269,0.149,0.616,0.311,1.043,0.483c0.431,0.176,0.798,0.357,1.102,0.542s0.553,0.382,0.747,0.593
			c0.195,0.211,0.337,0.443,0.425,0.695c0.088,0.252,0.132,0.532,0.132,0.84c0,0.406-0.08,0.778-0.239,1.117
			c-0.16,0.338-0.39,0.628-0.689,0.871s-0.659,0.431-1.08,0.566C1410.142,166.613,1409.669,166.681,1409.144,166.681z"/>
		<path fill="#FFFFFF" d="M1418.059,165.069c0,0.181,0.017,0.324,0.05,0.431c0.032,0.106,0.079,0.188,0.138,0.246
			c0.06,0.058,0.129,0.095,0.206,0.114c0.078,0.019,0.162,0.028,0.253,0.028h0.529v0.67h-4.351v-0.67h0.529
			c0.095,0,0.181-0.009,0.259-0.028s0.146-0.056,0.203-0.114s0.103-0.14,0.135-0.246c0.033-0.107,0.05-0.25,0.05-0.431v-6.737
			h-1.009c-0.189,0-0.347,0.021-0.475,0.062c-0.127,0.041-0.23,0.1-0.311,0.175s-0.139,0.169-0.178,0.28s-0.067,0.236-0.083,0.375
			l-0.087,0.781h-0.849l0.067-2.442h7.851l0.062,2.442h-0.843l-0.093-0.781c-0.016-0.14-0.044-0.265-0.083-0.375
			s-0.098-0.204-0.178-0.28s-0.184-0.134-0.311-0.175c-0.128-0.041-0.285-0.062-0.475-0.062h-1.009V165.069z"/>
		<path fill="#FFFFFF" d="M1422.429,165.266c0-0.275,0.038-0.505,0.114-0.69s0.18-0.333,0.313-0.444
			c0.131-0.111,0.288-0.19,0.47-0.237s0.375-0.07,0.58-0.07c0.199,0,0.388,0.023,0.567,0.07c0.178,0.047,0.335,0.126,0.47,0.237
			s0.241,0.259,0.321,0.444c0.078,0.185,0.118,0.415,0.118,0.69c0,0.27-0.04,0.495-0.118,0.677c-0.08,0.182-0.187,0.328-0.321,0.439
			s-0.292,0.192-0.47,0.242c-0.18,0.05-0.368,0.075-0.567,0.075c-0.205,0-0.398-0.025-0.58-0.075s-0.339-0.13-0.47-0.242
			c-0.133-0.111-0.236-0.258-0.313-0.439S1422.429,165.536,1422.429,165.266z"/>
		<path fill="#FFFFFF" d="M1395.174,178.112c0,0.281-0.031,0.554-0.092,0.817c-0.063,0.264-0.165,0.536-0.309,0.817
			s-0.332,0.579-0.566,0.892s-0.524,0.659-0.87,1.037s-0.749,0.795-1.208,1.252c-0.461,0.457-0.992,0.97-1.596,1.538l-1.802,1.714
			h4.192c0.369,0,0.684-0.107,0.945-0.321c0.26-0.214,0.443-0.523,0.549-0.927l0.149-0.554h1.063l-0.097,3.779h-8.508v-1.854
			l2.663-2.716c0.557-0.568,1.014-1.081,1.371-1.538s0.639-0.894,0.844-1.31s0.349-0.828,0.431-1.235s0.123-0.842,0.123-1.305
			c0-0.686-0.125-1.187-0.374-1.503s-0.593-0.475-1.032-0.475c-0.609,0-1.037,0.262-1.283,0.787s-0.369,1.299-0.369,2.325
			c-0.34,0-0.652-0.032-0.937-0.097s-0.527-0.167-0.729-0.308c-0.203-0.141-0.359-0.324-0.471-0.549s-0.167-0.5-0.167-0.822
			c0-0.328,0.083-0.639,0.251-0.932c0.166-0.293,0.414-0.551,0.742-0.773s0.739-0.4,1.234-0.532s1.071-0.198,1.728-0.198
			c0.674,0,1.267,0.069,1.78,0.207c0.512,0.138,0.942,0.335,1.291,0.593s0.611,0.571,0.787,0.94S1395.174,177.649,1395.174,178.112z
			"/>
		<path fill="#FFFFFF" d="M1405.905,181.716c0,0.99-0.082,1.893-0.246,2.707s-0.425,1.512-0.782,2.092s-0.814,1.028-1.371,1.345
			s-1.228,0.475-2.013,0.475c-0.82,0-1.512-0.158-2.074-0.475s-1.019-0.765-1.366-1.345c-0.35-0.58-0.6-1.279-0.752-2.096
			s-0.229-1.724-0.229-2.72s0.076-1.898,0.229-2.707s0.402-1.5,0.752-2.074c0.348-0.574,0.805-1.017,1.371-1.327
			c0.564-0.311,1.261-0.466,2.087-0.466c0.779,0,1.447,0.155,2.004,0.466s1.012,0.753,1.366,1.327s0.614,1.267,0.778,2.079
			S1405.905,180.714,1405.905,181.716z M1399.858,181.716c0,0.861,0.023,1.629,0.07,2.303s0.13,1.244,0.251,1.709
			c0.119,0.466,0.285,0.822,0.496,1.068s0.483,0.369,0.817,0.369s0.606-0.123,0.817-0.369s0.376-0.602,0.496-1.068
			s0.203-1.036,0.246-1.709c0.045-0.674,0.066-1.441,0.066-2.303s-0.021-1.627-0.066-2.298c-0.043-0.671-0.124-1.238-0.241-1.701
			s-0.281-0.816-0.492-1.059s-0.48-0.365-0.809-0.365c-0.334,0-0.608,0.122-0.821,0.365c-0.215,0.243-0.383,0.596-0.506,1.059
			s-0.208,1.03-0.255,1.701S1399.858,180.854,1399.858,181.716z"/>
		<path fill="#FFFFFF" d="M1415.969,181.716c0,0.99-0.082,1.893-0.246,2.707s-0.425,1.512-0.782,2.092s-0.814,1.028-1.371,1.345
			s-1.228,0.475-2.013,0.475c-0.82,0-1.512-0.158-2.074-0.475s-1.019-0.765-1.367-1.345s-0.599-1.279-0.751-2.096
			s-0.229-1.724-0.229-2.72s0.076-1.898,0.229-2.707s0.402-1.5,0.751-2.074s0.806-1.017,1.371-1.327s1.262-0.466,2.088-0.466
			c0.779,0,1.447,0.155,2.004,0.466s1.012,0.753,1.367,1.327c0.354,0.574,0.613,1.267,0.777,2.079
			S1415.969,180.714,1415.969,181.716z M1409.922,181.716c0,0.861,0.023,1.629,0.07,2.303s0.13,1.244,0.25,1.709
			s0.286,0.822,0.497,1.068s0.483,0.369,0.817,0.369s0.606-0.123,0.817-0.369s0.376-0.602,0.497-1.068
			c0.119-0.466,0.201-1.036,0.246-1.709c0.043-0.674,0.065-1.441,0.065-2.303s-0.022-1.627-0.065-2.298
			c-0.045-0.671-0.125-1.238-0.242-1.701s-0.281-0.816-0.492-1.059s-0.48-0.365-0.809-0.365c-0.334,0-0.608,0.122-0.822,0.365
			s-0.382,0.596-0.505,1.059s-0.208,1.03-0.255,1.701S1409.922,180.854,1409.922,181.716z"/>
		<path fill="#FFFFFF" d="M1420.671,188.334c-0.545,0-1.005-0.057-1.38-0.171s-0.68-0.267-0.914-0.457s-0.403-0.407-0.506-0.65
			s-0.153-0.494-0.153-0.751c0-0.264,0.07-0.485,0.211-0.664s0.363-0.3,0.668-0.365c0.088,0.27,0.193,0.521,0.316,0.756
			s0.271,0.438,0.444,0.611c0.172,0.173,0.374,0.309,0.605,0.409s0.497,0.149,0.796,0.149c0.809,0,1.431-0.437,1.868-1.31
			c0.436-0.873,0.684-2.174,0.742-3.902c-0.141,0.176-0.298,0.337-0.471,0.483s-0.367,0.275-0.584,0.387s-0.456,0.198-0.717,0.259
			s-0.546,0.092-0.856,0.092c-0.516,0-0.989-0.081-1.419-0.242c-0.432-0.161-0.804-0.398-1.117-0.712s-0.557-0.703-0.729-1.169
			c-0.174-0.466-0.26-1-0.26-1.604c0-0.65,0.094-1.242,0.281-1.775s0.458-0.992,0.813-1.375s0.787-0.681,1.297-0.892
			s1.087-0.316,1.731-0.316c0.65,0,1.251,0.117,1.802,0.352s1.026,0.598,1.428,1.09s0.714,1.119,0.937,1.881s0.334,1.67,0.334,2.725
			c0,0.99-0.097,1.92-0.29,2.791s-0.496,1.629-0.91,2.276c-0.412,0.647-0.946,1.159-1.6,1.534S1421.597,188.334,1420.671,188.334z
			 M1421.515,181.909c0.434,0,0.806-0.11,1.116-0.33s0.557-0.511,0.738-0.875c-0.006-0.768-0.057-1.427-0.154-1.978
			c-0.096-0.551-0.229-1.003-0.395-1.358c-0.168-0.354-0.368-0.617-0.603-0.787s-0.492-0.255-0.773-0.255
			c-0.516,0-0.914,0.253-1.195,0.76s-0.422,1.27-0.422,2.29c0,0.832,0.141,1.462,0.422,1.89S1420.952,181.909,1421.515,181.909z"/>
	</g>
</g>
</svg>
