<svg xmlns="http://www.w3.org/2000/svg" xmlns:xlink="http://www.w3.org/1999/xlink" width="366.458" height="64.169" viewBox="0 0 366.458 64.169">
  <defs>
    <clipPath id="clip-path">
      <rect id="Rectangle_1070" data-name="Rectangle 1070" width="366.458" height="64.169" fill="#fff"/>
    </clipPath>
  </defs>
  <g id="Ecovative_Logo" data-name="Ecovative Logo" transform="translate(-494.323 -297.017)">
    <g id="Group_2032" data-name="Group 2032" transform="translate(494.323 297.017)" clip-path="url(#clip-path)">
      <path id="Path_945" data-name="Path 945" d="M238.508,1.992h-5.365A1.86,1.86,0,0,0,231.3,3.836v5.2a1.861,1.861,0,0,0,1.844,1.845h5.365a1.861,1.861,0,0,0,1.844-1.845v-5.2a1.86,1.86,0,0,0-1.844-1.844" transform="translate(54.518 0.47)" fill="#fff"/>
      <path id="Path_946" data-name="Path 946" d="M82.166,11.219c-9.473,0-16.933,8.047-16.933,18.274,0,10.395,7.544,18.275,17.6,18.275a18.115,18.115,0,0,0,14.335-6.538,1.909,1.909,0,0,0,.5-1.342,1.782,1.782,0,0,0-.587-1.257l-2.935-2.6a1.931,1.931,0,0,0-2.6.084,11.2,11.2,0,0,1-8.634,3.855,9.028,9.028,0,0,1-8.886-6.957h22.8a1.829,1.829,0,0,0,1.845-1.677,13.019,13.019,0,0,0,.084-1.677c-.084-10.814-6.874-18.442-16.6-18.442M82,18.847c4.61,0,7.041,3.352,7.88,7.041H73.951c1.173-4.274,4.274-7.041,8.047-7.041" transform="translate(15.376 2.645)" fill="#fff"/>
      <path id="Path_947" data-name="Path 947" d="M124.049,35.7a1.9,1.9,0,0,0-1.341-.5,1.78,1.78,0,0,0-1.258.587c-2.6,2.766-5.281,4.107-8.3,4.107-5.532,0-9.724-4.526-9.724-10.479,0-5.867,4.107-10.395,9.389-10.395,3.521,0,5.867,1.677,8.215,4.192a1.826,1.826,0,0,0,2.683,0l3.1-3.268a1.826,1.826,0,0,0,0-2.516,18.019,18.019,0,0,0-13.915-6.2,18.319,18.319,0,0,0,0,36.632c7.292,0,11.4-3.6,14.25-6.706a1.929,1.929,0,0,0-.084-2.6Z" transform="translate(22.363 2.644)" fill="#fff"/>
      <path id="Path_948" data-name="Path 948" d="M141.1,11.219a18.124,18.124,0,0,0-18.275,18.358,18.275,18.275,0,1,0,36.55-.084A18.105,18.105,0,0,0,141.1,11.219m0,28.668c-5.448,0-9.808-4.61-9.808-10.479,0-6.035,4.023-10.395,9.64-10.395,5.533,0,9.892,4.612,9.892,10.479,0,6.035-4.107,10.395-9.724,10.395" transform="translate(28.95 2.645)" fill="#fff"/>
      <path id="Path_949" data-name="Path 949" d="M185.883,11.761h-5.029a1.709,1.709,0,0,0-1.677,1.174L170.207,34.9l-8.885-21.962a1.825,1.825,0,0,0-1.677-1.174h-5.2a1.876,1.876,0,0,0-1.677,2.6l13.664,31.77a1.748,1.748,0,0,0,1.676,1.09h4.107a1.749,1.749,0,0,0,1.677-1.09l13.748-31.77a1.875,1.875,0,0,0-.168-1.761,1.726,1.726,0,0,0-1.593-.838" transform="translate(35.974 2.772)" fill="#fff"/>
      <path id="Path_950" data-name="Path 950" d="M197.617,11.422a28.673,28.673,0,0,0-12.238,2.767,2.034,2.034,0,0,0-1.006,2.347l1.425,3.857a2.122,2.122,0,0,0,1.006,1.089,2.321,2.321,0,0,0,1.509,0,20.616,20.616,0,0,1,8.8-2.179c4.526,0,6.957,1.844,7.46,5.448a37.48,37.48,0,0,0-7.795-.838c-9.473,0-15.341,4.61-15.341,12.07,0,7.712,6.874,11.737,13.58,11.737a15.612,15.612,0,0,0,9.556-2.935V45.2a1.862,1.862,0,0,0,1.845,1.845h4.526A1.862,1.862,0,0,0,212.79,45.2V25.924c.083-9.221-5.449-14.5-15.173-14.5m-1.593,28.836c-3.018,0-6.035-1.425-6.035-4.526,0-4.276,5.113-4.694,7.376-4.694a31.18,31.18,0,0,1,7.377.922v1.593c0,3.857-3.773,6.706-8.718,6.706" transform="translate(42.765 2.693)" fill="#fff"/>
      <path id="Path_951" data-name="Path 951" d="M229.988,13.568h-8.131V5.94a1.862,1.862,0,0,0-1.845-1.845h-4.694a1.861,1.861,0,0,0-1.844,1.845v7.628H210.96a1.861,1.861,0,0,0-1.845,1.844v4.107a1.861,1.861,0,0,0,1.845,1.845h2.515V38.549c0,6.706,4.023,10.73,10.73,10.73a14.417,14.417,0,0,0,6.539-1.509,1.91,1.91,0,0,0,1.006-1.677V42.069a1.907,1.907,0,0,0-.839-1.593,1.866,1.866,0,0,0-1.76-.084,7.831,7.831,0,0,1-3.773.922c-2.515,0-3.436-.922-3.436-3.352V21.448h8.131a1.861,1.861,0,0,0,1.844-1.845V15.5a2.007,2.007,0,0,0-1.928-1.928" transform="translate(49.289 0.966)" fill="#fff"/>
      <path id="Path_952" data-name="Path 952" d="M238.04,11.761h-4.694A1.86,1.86,0,0,0,231.5,13.6V45.041a1.86,1.86,0,0,0,1.844,1.844h4.694a1.86,1.86,0,0,0,1.844-1.844V13.522a1.79,1.79,0,0,0-1.844-1.761" transform="translate(54.566 2.772)" fill="#fff"/>
      <path id="Path_953" data-name="Path 953" d="M276.122,12.6a1.871,1.871,0,0,0-1.509-.838h-5.029a1.709,1.709,0,0,0-1.677,1.173L258.938,34.9l-8.885-21.963a1.825,1.825,0,0,0-1.677-1.173h-5.2a1.876,1.876,0,0,0-1.677,2.6l13.664,31.77a1.748,1.748,0,0,0,1.676,1.09h4.107a1.749,1.749,0,0,0,1.677-1.09l13.748-31.77a2.559,2.559,0,0,0-.252-1.761" transform="translate(56.888 2.772)" fill="#fff"/>
      <path id="Path_954" data-name="Path 954" d="M286.424,11.219c-9.472,0-16.933,8.047-16.933,18.274,0,10.395,7.544,18.275,17.52,18.275a18.117,18.117,0,0,0,14.335-6.538,1.913,1.913,0,0,0,.5-1.342,1.781,1.781,0,0,0-.586-1.257l-2.935-2.6a1.931,1.931,0,0,0-2.6.084,11.2,11.2,0,0,1-8.634,3.855,9.026,9.026,0,0,1-8.885-6.957h22.8a1.829,1.829,0,0,0,1.844-1.677,13.021,13.021,0,0,0,.084-1.677c0-10.814-6.79-18.442-16.515-18.442m-.084,7.628c4.61,0,7.041,3.352,7.881,7.041H278.294c1.087-4.274,4.189-7.041,8.046-7.041" transform="translate(63.52 2.645)" fill="#fff"/>
      <path id="Path_955" data-name="Path 955" d="M32.085,0A32.084,32.084,0,1,0,64.169,32.084,32.084,32.084,0,0,0,32.085,0M48.694,32.656c-1.609,2.074-4.647,2.395-5.862,2.431H36.861a2.3,2.3,0,0,1-2-1.358,4.755,4.755,0,0,1-.465-1.288c-.036-.25-.072-.536-.106-.822a6.862,6.862,0,0,1-.036-1.252v-.106c.07-3.647,3.681-2,4.861-1.609a5.527,5.527,0,0,0,2.109.285,1.864,1.864,0,0,0,1.466-.714,2.713,2.713,0,0,0-.143-2.324,11.549,11.549,0,0,0-10.26-6.791A11.548,11.548,0,0,0,22.1,25.757l-.036.072c-.108.25-.68,1.572-.179,2.395a1.591,1.591,0,0,0,1.037.644,5.348,5.348,0,0,0,2.717-.179c1.179-.429,4.754-2.038,4.861,1.609a7.077,7.077,0,0,1-.143,1.93l-.036.25a4.625,4.625,0,0,1-.643,1.645,2.376,2.376,0,0,1-1.824,1.037H24.1c-1.144,0-1.9.251-2.217.786-.5.823.072,2.145.179,2.4a11.5,11.5,0,0,0,10.188,6.685,11.393,11.393,0,0,0,9.758-5.9l.036-.036a2.3,2.3,0,0,1,.215-.357,2.208,2.208,0,0,1,1.179-.822,1.226,1.226,0,0,1,.394-.036,2.1,2.1,0,0,1,.678.106l.323.108a.111.111,0,0,0,.072.036,6,6,0,0,1,.822.393l.072.036a3.734,3.734,0,0,1,1.715,1.824c.036.036.036.036.036.072s.036.142.036.214a2.063,2.063,0,0,1-.321,1.645c-.179.321-.323.536-.5.822l-.036.072a17.557,17.557,0,0,1-14.477,8.007c-9.8,0-17.8-8.579-17.8-19.125s7.972-19.125,17.8-19.125c8.079,0,15.192,5.862,17.229,14.3.5,2.287.215,4.11-.786,5.4" transform="translate(0 0)" fill="#fff"/>
    </g>
  </g>
</svg>
