<svg height="168.4" width="112.3" xmlns="http://www.w3.org/2000/svg"><style>.f0,.f1{fill:#231f20;fill-opacity:1;fill-rule:nonzero;stroke:none}.f0{fill-rule:evenodd}</style><path d="M837 425.8H5V1258H837V425.8" style="fill:#fff;fill-opacity:1;fill-rule:nonzero;stroke:none" transform="matrix(.13333 0 0 -.13333 0 168.4)"/><path class="f1" d="M1.3 111h109.6V1.2H1.3v109.6Zm110.3.6v-.7zM0 112.2V0h112.3v112.2H0"/><path class="f0" d="M10.4 90.7h2c1.3 0 2 .7 2 2 0 2-1.5 2.2-3 2.2h-1ZM8 102h2.4v-5.5h1c2.2 0 2.5.7 3 2.8l.7 2.7h2.4l-.8-3.6C16.3 97 16 96 14 95.5c1.5-.3 2.9-1 2.9-3 0-2.5-2-3.4-4.6-3.4H8v13M23.6 102h8.5v-1.6h-6v-4.2h5.5v-1.7H26v-3.7h6V89h-8.4v13M38.4 102h2.2V92l5.8 10h2.7V89.1H47v9.5l-5.5-9.5h-3v13M58 95.6c0-2.8.7-5.1 3.1-5.1 2.5 0 3.1 2.3 3.1 5 0 2.8-.6 5.2-3 5.2-2.5 0-3.2-2.4-3.2-5.1zm3.1 6.6c4.5 0 5.8-2.9 5.8-6.6 0-3.8-1.3-6.7-5.8-6.7-4.4 0-5.8 3-5.8 6.7s1.4 6.6 5.8 6.6M73.2 102h8v-1.6h-5.5V89h-2.5v13"/><path class="f1" d="M86.9 89.1h2.4v13H87V89"/><path class="f0" d="M98.2 102h2.4V90.8h3.6V89h-9.6v1.7h3.6V102"/><path d="M424.6 661.5h357.2v251.9c-135.5-26.7-260.1-106.2-357.2-252" style="fill:#2b78c6;fill-opacity:1;fill-rule:evenodd;stroke:none" transform="matrix(.13333 0 0 -.13333 0 168.4)"/><path class="f0" d="M8 80.2h41A82 82 0 0 1 104.1 40V8H64a82.6 82.6 0 0 0-22.4 28.6V8H8v72.2"/><path class="f1" d="M111.8 151.3h.2l.3-.4c-.2-.7-1-1.1-2.6-1.7 0 .1.1 0 .1 0h-.2l-1 .6-.1.4c0 .3.3.6.7 1 0 .2-.2 0-.1.3l1 .4h1v-.4l.7-.2M33.2 137.5c.4-1 .5-2 .3-3.2v-.4c.2-.5.3-1.6.4-3.2l.1-4.3-.2-.2.2-.3-.1-.1c.1 0 .3 0 .4-.2.2-.3.6-.4.7-.4h.7c.1.3.4.6.8 1l.3 1.5c-.7 2.3-1 4.5-1.2 6.6a44.7 44.7 0 0 1-.5 5.4c0 1 0 2-.3 2.4l.1.1c-.2.2 0 1.4.3 4v1.2c-.2.1.2.2.2.3 0 .2 0 .3.2.5v.2c.2 0 0 .1.2.2-.1.1-.2.2-.1.4 0 .3.3.4.3.5v.4c.6 1.3 1 2 1.2 2 .4 0 .7 0 .8.3l-.3.4-.3.5H37.1l-.8-.8-1.1-1a10 10 0 0 0-1.2-2.1v-.5l-.5-2.8-.4-.6v-2.8c0-1.2 0-2.2.2-2.8v-2.2M67.4 139.6h.1l-1.9-2.6-1-1a2 2 0 0 0-.5-.2h-.4c-.3 0-.7.3-.8.3h-.5l-.2.2.1.5c-.4-.1-1.1 1.2-2.2 4a52 52 0 0 0-1.1 5.9c.1.1.3.2.3.4v1.4l.3.7c.2.4.3.7.6.8l1 1.4s-.1.2 0 .4c.3 0 .6.3.8.7l.3-.1.8.2 1 .3h.1c.3 0 .8-.5 1.5-1.5.8-1 1.2-1.7 1.3-2l.7-1.1v-1h.1c0-.4.1-.7.3-.8-.2 0-.2-.1-.3-.2l.2-.3.2-.8v-3l-.3-.2zm-1.2 1.1.1 2.2c0 1 0 1.7-.2 2.1 0 0 .2.1.2.3.1.5-.2 1.5-.8 3-.7 1.8-1.4 2.6-2 2.6H63l-.8-.9c-.7-1-1-1.8-1.2-2.4l.1-1.7a7 7 0 0 1 .4-1.6l-.3-.3.2-.9 1-2.3c0-.2 0-.5.5-1 .4-.6.7-1 1-1 .1 0 .3 0 .5-.2l.2-.2c.3 0 .4.2.4 0l.5.5-.2.2.4.3c0 .3.4 1 .5 1.3M77.4 138c0-.2.3-.4.8-.6.4-.3.7-.4 1-.4.2 0 .5.3 1 .9l.2.7c-.2.4-.4 1.2-.5 2.2l-.5 2.3V146.7s.2.2 0 .3v.3l.4.1-.1.4v.9l.4 1.1v.7l.7 1.1.8.8-.3.8h-.4l-.4-.2-.5-.4a18.8 18.8 0 0 1-1.2-1.3 5.7 5.7 0 0 0-1-2.2v-1l-.2-.3v-.4l-.2-.3c0-.2.1-.3 0-.4.2-.2.1-.3 0-.4V143.9c.2-1.2.3-2 .2-2.3l-1 1 .4.2c-.3 0-.5.5-.9 1.2l-.8 1.7-.4 1c-.3.2-.3.3-.3.5 0 .1-.2 0 0 .1-.2 0 0 .2-.2.1 0 .5-.3 1.2-.6 2l.3.1-.4 1c-.3.7-.6 1-1 1-.6 0-1.1-.4-1.7-1.2v-.4l.3-2.3c0-1 .2-1.8.3-2.3 0 0 0-.4.3-1-.1-.2 0-.4 0-.8l-.1-.8c.2 0 .2-.2.2-.5s-.2-.5-.3-.7l.2-.5v-.4l-.4-.4.2-.4h.1l.2.2.7-.4h.5c.4 0 1 .4 1.2.7.1.6 0 1.3-.2 2v.5c-.2 0-.3 0-.2.2l.1.1v.8c.6-.7 1.2-1.9 2-3.4.4-.2.7-.6 1-1.2.3-.2.2-.6.3-1v-.4"/><path class="f1" d="M73.6 150h.1v.1M95.6 130.8l-.2-.3-.1-.2v-.3l-1.2-.8-.2.1-.3-.1-.1.1-.6-.1c-.4 0-.5.2-.4.7l-.1.3v.4l.5.4 2 .7c.3-.1.5-.2.6-.4v-.5M95.1 141.3v.3c-.2.4-.3 1.9-.4 4.5v1.3l.3 1.7-.1 1.2.3 1.2c0 .5-.2.7-.8.7-.2 0-.5 0-.7-.2-.1 0-.2-.1-.3-.4l-.2-.3.3-.2-.3-.3v-.8l-.2-.7-.2-4 .2-2.3v-2.5c0-.2-.1-.3-.3-.4v-.3a1 1 0 0 1-.2-.4v-.5l-.2-.2v-.2a.7.7 0 0 1-.4-.6s.2-.2.1-.3h.3c.1 0 .1 0 0-.2h.9l.2.2a8.4 8.4 0 0 0 .7-.4l.7.2-.1.4s.3.1.3.4H95.3V139c-.2.5-.2.8-.1 1-.2.1-.3.4-.3.8l.2.4M100.7 139.6l.1.8c0 .4 0 .7-.3.7l-.6.3H99.3l-.3.2-.7.3-1.8.7c-.4.2-.6.5-.5.9 0 .2.7 1 .7 1.2l.3-.2c.3.3.6.4.7.4h.5a8 8 0 0 1 2.8-1.7c.1.8.1 1.3-.1 1.4l.2 3.5.2 1.3c.1.5-.1.5-.2 1l.1.3c-.2.1-.1.4 0 .5 0 0-.2 0 0 .2-.2.1 0 .2 0 .3l.6.3.6.3.8-.2.3-.4-.2-.6c0-.3-.2-.5-.2-.5l.2-.4s-.4-.5-.4-.8c-.2-.7-.3-1.8-.3-3.3l-.1-3.2c.2-.2.5-.5 1-.7l.2.1 1-.2 1-.3.6-.3.3.2c.2-.2.5-.4.8-.3 0-.2 0-.3.1-.2.4 0 1.1-.5 1.4-.6l-.2-.6h-1l-.8.2-.3-.2c-.3 0-.7 0-1.3.3-.5.2-1 .2-1.1.2h-.2l-.3.1h-1.3a53 53 0 0 1 .2-13l.2-.6v-.7l-.4-.8c-.6-.2-1.2-.6-1.8-.6-.3 0-.8.7-1 .7v1.1c.3 0 .4.2.5.3l-.3.2.3.4-.1.3v.2l.4 3.4v2.8c.2 1.5.2 2.5 0 3 .2 1 .4 1.4.1 1.7h.3l-.2.4.2.2M30 140l.4-1.8-.4-.8c-.4-.9-.7-1.3-1-1.3l-.5.1-.6-.2c0 .2-.2.2-.4.2l-2 1c-.5.6-.9 1-1 .9-.2 0-.5.5-1 1.3-.4.9-.7 1.4-1 1.6l-.5 1.4-.2.8c-.2.5-.2.8-.1 1-.2.8-.3 1.3-.2 1.6v.5l.1.5.2.4c0 .3.2.4.2.5l.9 1.1c.1.2.4.4.3.5l3 1.4c.1.1.3.2.4.1l2-.2.7-.5h.4c.1 0 .5-.2 1-.8.7-.5 1.1-.8 1.4-.8l.2-1 .3-.7c0-.2-.3-.4-.7-.4l-.8.4c-1 1-1.8 1.7-2.3 1.8l-.7.5h-.3l-.6.1h-.3c-.4-.1-.4.1-.4 0H26c-.6-.2-1.7-1-1.8-1.4 0-.2.4-.7 1.2-1.6l3.7-4c.5-1.2.8-2 1.1-2a2 2 0 0 1-.3-.2m-2-1.7c.3.5 0 1.2.1 1.3l-.3.8c0 .2-.2.6-.6 1-.4.5-.3.7-.8 1a32 32 0 0 0-2.6 2.4c0-1 .3-2 .8-3l1.5-2.2a9 9 0 0 1 2-1.3M29.5 156c.5.3.7.6.8.8-1 1.3-.7 1-.4 2.3.2.7 1 1.7 2.8 3.9 0 0 .2.3.4.2.2.3.9.8 2 1.5 1 .7 1.7 1 1.9 1l.4.3c-.2 0-.2-.2.5 0 .3.2.5.3.6.2l1 .5H41a4 4 0 0 1 .8-.1l1.1-.4.7-.4c.3-.3.6-.4.6-.7.5-.4.4-.3.5-.7l1-2c.7-2.7.9-4.6.6-5.7a20.8 20.8 0 0 0-.6-5.8c.1-.4.2-1 .1-1.6l-.1-1.6-.3-.3-.8 1a3 3 0 0 0-.6 1.2l-1.2 1.3-1.1 1.3H41c-.6 0-1 0-1.2-.3 0 0 0-.3-.2-.2-.8-1.4-1.3-1.8-1.3-1.9v-1.5a9 9 0 0 0 0-2.2l.3-1.4v-1.5l-.5-.6c0-.6.7-1.3 1.4-1.3.2 0 .6.3 1.3.8l.3.6-.1.3.3.2c-.2.3-.4 1.1-.7 2.7l-.3 2.6v.5c-.2.2.1.6.2 1l.3.2 1.4-1.8 2.4-3c0-.6.3-.9.5-.8V143c0-2.8.2-5.1.4-7.1.3-.2.7-1 1.3-2.1h.3l1.6.3v.5c0 .2.2.2.3.2v.4c0 .2.1.3.3.3v.5l-.3 1.8.3.1c-1.6 4.1-2.3 6.5-2 7v2.5c.2 1 .2 1.8.2 2.3l.2 1.3.1 1.2.2.4.2 4.8.1 1c-.1 0-.2-.2 0 .5l-.4 2.3c0 1.2-.3 1.9-.5 2.2 0 .1 0 .4-.3.9l-.3 1-.2.3c-.3.5-.5 1-1.7 1.7s-2.1 1-2.8 1l-.6-.1-1.1.2-1-.3c-.4 0-1-.3-1.9-.6l-2-.7-1.8-1.2c-.5-.2-1.4-1-2.9-2.5a10.5 10.5 0 0 1-2.6-3.5c-.1-.4-.2-1-.1-1.8 0-.8 0-.8.2-1.1 0 0 .3-.8 1.2-.6"/><path class="f1" d="M22.4 132.7c.8-1 1-1.8.8-2.7-.1-.4-1.1-1.4-1.6-1.4a29.4 29.4 0 0 0-5.4-1.8l-.3.2-.7-.3-.4.1-2.7-.3-1.2.1-1.4-.2-3.8.1c-.3 0-.3 0 0 0l-.4-.1s-.1-.2-.3-.2l-.6.2h-.7s.1.1-.4 0c-.7 0-.6-.2-.6-.2l-.8-.2c-.6 0-1 .2-1.2.5L0 128l1.4.6v.2c0 .4.3.5.6.5l1-.2.6-.3 1-.3h1l.5 1v.6l.1.7.1 1.5c.2 1 .1 1.7 0 1.9l.2 4.7-1.5.8.2.8.6.6.7.6v3.6l-.2 3.2a13.4 13.4 0 0 1 .2 1.4c.4 0 1 .5 1 .5h1c.5-.4.7-1 .5-1.8v-1.5c-.1-.2-.6-.8-.6-1l.2-2.7c.2 0 .6 1 2.4 2.3l3 2.7 3.5 2.3 2.5 1.5c1.5.5 3.1.8 3.9 1.2l2.1.6c1.7-1.5.2-1.4-.3-2h-1c-.5-.2-1-.3-1.7-.7-1.9-1-3.7-1.4-4.5-1.9-1.8-1.1-3.2-2.5-4.6-3.7-.1 0-.8-1-2.7-2.7a13 13 0 0 1-2.7-2.4c0-.2.4-.4 1.4-.8l1.6-.5c1.9-1 2.8-1.3 3-1.3h.2l.8-.6 2.3-1.3 2-1 1.5-.8 1.1-1.6m-1.6-2c.1.4-.5 1.2-1.8 2.3a35.3 35.3 0 0 1-9.4 4.8l-.4-.1c-.2 0-.4.1-.8.5v-3.4l-.4-6.4.6-.2h.7l.8.2H14l.3.2.5-.1c.2 0 .8 0 1.7.3l2.5.8h.3c1 .4 1.5.8 1.6 1"/></svg>